<svg width="14" height="12" viewBox="0 0 14 12" fill="none" xmlns="http://www.w3.org/2000/svg">
<path d="M7.84 7.4245e-06C4.44667 -0.0933259 1.66667 2.63334 1.66667 6.00001H0.473333C0.173333 6.00001 0.0266667 6.36001 0.24 6.56667L2.1 8.43334C2.23333 8.56667 2.44 8.56667 2.57333 8.43334L4.43333 6.56667C4.64 6.36001 4.49333 6.00001 4.19333 6.00001H3C3 3.40001 5.12 1.30001 7.73333 1.33334C10.2133 1.36667 12.3 3.45334 12.3333 5.93334C12.3667 8.54001 10.2667 10.6667 7.66667 10.6667C6.59333 10.6667 5.6 10.3 4.81333 9.68001C4.54667 9.47334 4.17333 9.49334 3.93333 9.73334C3.65333 10.0133 3.67333 10.4867 3.98667 10.7267C5 11.5267 6.27333 12 7.66667 12C11.0333 12 13.76 9.22001 13.6667 5.82667C13.58 2.70001 10.9667 0.0866741 7.84 7.4245e-06ZM7.5 3.33334C7.22667 3.33334 7 3.56001 7 3.83334V6.28667C7 6.52001 7.12666 6.74001 7.32666 6.86001L9.40666 8.09334C9.64666 8.23334 9.95333 8.15334 10.0933 7.92001C10.2333 7.68001 10.1533 7.37334 9.92 7.23334L8 6.09334V3.82667C8 3.56001 7.77333 3.33334 7.5 3.33334Z" fill="black"/>
</svg>
